<svg width="24" height="24" viewBox="0 0 24 24" fill="none" xmlns="http://www.w3.org/2000/svg">
<path d="M14.75 2C14.3358 2 14 2.33579 14 2.75C14 3.16421 14.3358 3.5 14.75 3.5H19.4393L12.2197 10.7197C11.9268 11.0126 11.9268 11.4874 12.2197 11.7803C12.5126 12.0732 12.9874 12.0732 13.2803 11.7803L20.5 4.56066V9.25C20.5 9.66421 20.8358 10 21.25 10C21.6642 10 22 9.66421 22 9.25V2.75C22 2.33579 21.6642 2 21.25 2H14.75Z" fill="#434C6B"/>
<path d="M4.5 10.25C4.5 8.17893 6.17893 6.5 8.25 6.5H11.25C11.6642 6.5 12 6.16421 12 5.75C12 5.33579 11.6642 5 11.25 5H8.25C5.35051 5 3 7.3505 3 10.25V15.75C3 18.6495 5.3505 21 8.25 21H13.75C16.6495 21 19 18.6495 19 15.75V12.75C19 12.3358 18.6642 12 18.25 12C17.8358 12 17.5 12.3358 17.5 12.75V15.75C17.5 17.8211 15.8211 19.5 13.75 19.5H8.25C6.17893 19.5 4.5 17.8211 4.5 15.75V10.25Z" fill="#434C6B"/>
</svg>
