<svg width="16" height="16" viewBox="0 0 16 16" fill="none" xmlns="http://www.w3.org/2000/svg">
<path d="M10.5 1C10.2239 1 10 1.22386 10 1.5C10 1.77614 10.2239 2 10.5 2H13.2929L8.14645 7.14645C7.95118 7.34171 7.95118 7.65829 8.14645 7.85355C8.34171 8.04882 8.65829 8.04882 8.85355 7.85355L14 2.70711V5.5C14 5.77614 14.2239 6 14.5 6C14.7761 6 15 5.77614 15 5.5V1.5C15 1.22386 14.7761 1 14.5 1H10.5Z" fill="#434C6B"/>
<path d="M3 6.5C3 5.11929 4.11929 4 5.5 4H7.5C7.77614 4 8 3.77614 8 3.5C8 3.22386 7.77614 3 7.5 3H5.5C3.567 3 2 4.567 2 6.5V10.5C2 12.433 3.567 14 5.5 14H9.5C11.433 14 13 12.433 13 10.5V8.5C13 8.22386 12.7761 8 12.5 8C12.2239 8 12 8.22386 12 8.5V10.5C12 11.8807 10.8807 13 9.5 13H5.5C4.11929 13 3 11.8807 3 10.5V6.5Z" fill="#434C6B"/>
</svg>
