<svg width="32" height="32" viewBox="0 0 32 32" fill="none" xmlns="http://www.w3.org/2000/svg">
<path d="M21 2C20.4477 2 20 2.44772 20 3C20 3.55228 20.4477 4 21 4H26.5858L16.2929 14.2929C15.9024 14.6834 15.9024 15.3166 16.2929 15.7071C16.6834 16.0976 17.3166 16.0976 17.7071 15.7071L28 5.41421V11C28 11.5523 28.4477 12 29 12C29.5523 12 30 11.5523 30 11V3C30 2.44772 29.5523 2 29 2H21Z" fill="#434C6B"/>
<path d="M5 13C5 10.2386 7.23858 8 10 8H16C16.5523 8 17 7.55228 17 7C17 6.44772 16.5523 6 16 6H10C6.13401 6 3 9.13401 3 13V22C3 25.866 6.13401 29 10 29H19C22.866 29 26 25.866 26 22V16C26 15.4477 25.5523 15 25 15C24.4477 15 24 15.4477 24 16V22C24 24.7614 21.7614 27 19 27H10C7.23858 27 5 24.7614 5 22V13Z" fill="#434C6B"/>
</svg>
