<svg width="24" height="24" viewBox="0 0 24 24" fill="none" xmlns="http://www.w3.org/2000/svg">
<path d="M16.6431 8.63587C16.8562 8.28069 16.7411 7.81999 16.3859 7.60688C16.0307 7.39377 15.57 7.50894 15.3569 7.86413L11.3138 14.6026L8.48809 12.1806C8.1736 11.911 7.70012 11.9474 7.43056 12.2619C7.16099 12.5764 7.19741 13.0499 7.51191 13.3194L10.4219 15.8137C11.083 16.3804 12.0949 16.2162 12.5429 15.4695L16.6431 8.63587Z" fill="#434C6B"/>
<path d="M12 2C6.47715 2 2 6.47715 2 12C2 17.5228 6.47715 22 12 22C17.5228 22 22 17.5228 22 12C22 6.47715 17.5228 2 12 2ZM20.5 12C20.5 16.6944 16.6944 20.5 12 20.5C7.30558 20.5 3.5 16.6944 3.5 12C3.5 7.30558 7.30558 3.5 12 3.5C16.6944 3.5 20.5 7.30558 20.5 12Z" fill="#434C6B"/>
</svg>
