<svg width="16" height="16" viewBox="0 0 16 16" fill="none" xmlns="http://www.w3.org/2000/svg">
<path d="M1 8C1 4.13401 4.13401 1 8 1C11.866 1 15 4.13401 15 8C15 11.866 11.866 15 8 15C4.13401 15 1 11.866 1 8ZM11.4218 5.76844C11.5701 5.53547 11.5014 5.22642 11.2684 5.07817C11.0355 4.92992 10.7264 4.99859 10.5782 5.23156L7.37729 10.2615L5.31235 8.60957C5.09672 8.43706 4.78207 8.47202 4.60957 8.68765C4.43706 8.90328 4.47202 9.21793 4.68765 9.39043L6.75259 11.0424C7.21717 11.4141 7.90153 11.3003 8.22095 10.7984L11.4218 5.76844Z" fill="#434C6B"/>
</svg>
