<svg width="32" height="32" viewBox="0 0 32 32" fill="none" xmlns="http://www.w3.org/2000/svg">
<path d="M22.8437 11.5369C23.1402 11.0709 23.0028 10.4528 22.5369 10.1563C22.0709 9.85983 21.4528 9.99718 21.1563 10.4631L14.7546 20.523L10.6247 17.2191C10.1934 16.8741 9.56414 16.944 9.21913 17.3753C8.87412 17.8066 8.94404 18.4359 9.37531 18.7809L13.5052 22.0848C14.4343 22.8281 15.8031 22.6007 16.4419 21.5968L22.8437 11.5369Z" fill="#434C6B"/>
<path d="M16 2C8.26801 2 2 8.26801 2 16C2 23.732 8.26801 30 16 30C23.732 30 30 23.732 30 16C30 8.26801 23.732 2 16 2ZM28 16C28 22.6274 22.6274 28 16 28C9.37258 28 4 22.6274 4 16C4 9.37258 9.37258 4 16 4C22.6274 4 28 9.37258 28 16Z" fill="#434C6B"/>
</svg>
