<svg width="24" height="24" viewBox="0 0 24 24" fill="none" xmlns="http://www.w3.org/2000/svg">
<path d="M3 7.75C3 5.12665 5.12665 3 7.75 3H16.25C18.8734 3 21 5.12665 21 7.75V16.25C21 18.8734 18.8734 21 16.25 21H7.75C5.12665 21 3 18.8734 3 16.25V7.75ZM16.6431 8.63587C16.8562 8.28069 16.7411 7.81999 16.3859 7.60688C16.0307 7.39377 15.57 7.50894 15.3569 7.86413L11.3138 14.6026L8.48809 12.1806C8.1736 11.911 7.70012 11.9474 7.43056 12.2619C7.16099 12.5764 7.19741 13.0499 7.51191 13.3194L10.4219 15.8137C11.083 16.3804 12.0949 16.2162 12.5429 15.4695L16.6431 8.63587Z" fill="#434C6B"/>
</svg>
