<svg width="32" height="32" viewBox="0 0 32 32" fill="none" xmlns="http://www.w3.org/2000/svg">
<path d="M3 10C3 6.13401 6.13401 3 10 3H22C25.866 3 29 6.13401 29 10V22C29 25.866 25.866 29 22 29H10C6.13401 29 3 25.866 3 22V10ZM22.8437 11.5369C23.1402 11.0709 23.0028 10.4528 22.5369 10.1563C22.0709 9.85983 21.4528 9.99718 21.1563 10.4631L14.7546 20.523L10.6247 17.2191C10.1934 16.8741 9.56414 16.944 9.21913 17.3753C8.87412 17.8066 8.94404 18.4359 9.37531 18.7809L13.5052 22.0848C14.4343 22.8281 15.8031 22.6007 16.4419 21.5968L22.8437 11.5369Z" fill="#434C6B"/>
</svg>
