<svg width="16" height="16" viewBox="0 0 16 16" fill="none" xmlns="http://www.w3.org/2000/svg">
<path d="M11.4218 5.76844C11.5701 5.53547 11.5014 5.22642 11.2684 5.07817C11.0355 4.92992 10.7264 4.99859 10.5782 5.23156L7.37729 10.2615L5.31235 8.60957C5.09672 8.43706 4.78207 8.47202 4.60957 8.68765C4.43706 8.90328 4.47202 9.21793 4.68765 9.39043L6.75259 11.0424C7.21717 11.4141 7.90153 11.3003 8.22095 10.7984L11.4218 5.76844Z" fill="#434C6B"/>
<path d="M4.5 1C2.567 1 1 2.567 1 4.5V11.5C1 13.433 2.567 15 4.5 15H11.5C13.433 15 15 13.433 15 11.5V4.5C15 2.567 13.433 1 11.5 1H4.5ZM2 4.5C2 3.11929 3.11929 2 4.5 2H11.5C12.8807 2 14 3.11929 14 4.5V11.5C14 12.8807 12.8807 14 11.5 14H4.5C3.11929 14 2 12.8807 2 11.5V4.5Z" fill="#434C6B"/>
</svg>
