<svg width="16" height="16" viewBox="0 0 16 16" fill="none" xmlns="http://www.w3.org/2000/svg">
<path d="M4.5 7.5C4.22386 7.5 4 7.72386 4 8C4 8.27614 4.22386 8.5 4.5 8.5H11.5C11.7761 8.5 12 8.27614 12 8C12 7.72386 11.7761 7.5 11.5 7.5H4.5Z" fill="#434C6B"/>
<path d="M4.5 1C2.567 1 1 2.567 1 4.5V11.5C1 13.433 2.567 15 4.5 15H11.5C13.433 15 15 13.433 15 11.5V4.5C15 2.567 13.433 1 11.5 1H4.5ZM2 4.5C2 3.11929 3.11929 2 4.5 2H11.5C12.8807 2 14 3.11929 14 4.5V11.5C14 12.8807 12.8807 14 11.5 14H4.5C3.11929 14 2 12.8807 2 11.5V4.5Z" fill="#434C6B"/>
</svg>
