<svg width="32" height="32" viewBox="0 0 32 32" fill="none" xmlns="http://www.w3.org/2000/svg">
<path d="M10 15C9.44772 15 9 15.4477 9 16C9 16.5523 9.44772 17 10 17H22C22.5523 17 23 16.5523 23 16C23 15.4477 22.5523 15 22 15H10Z" fill="#434C6B"/>
<path d="M10 3C6.13401 3 3 6.13401 3 10V22C3 25.866 6.13401 29 10 29H22C25.866 29 29 25.866 29 22V10C29 6.13401 25.866 3 22 3H10ZM5 10C5 7.23858 7.23858 5 10 5H22C24.7614 5 27 7.23858 27 10V22C27 24.7614 24.7614 27 22 27H10C7.23858 27 5 24.7614 5 22V10Z" fill="#434C6B"/>
</svg>
