<svg width="24" height="24" viewBox="0 0 24 24" fill="none" xmlns="http://www.w3.org/2000/svg">
<path d="M7.75 11.25C7.33579 11.25 7 11.5858 7 12C7 12.4142 7.33579 12.75 7.75 12.75H16.25C16.6642 12.75 17 12.4142 17 12C17 11.5858 16.6642 11.25 16.25 11.25H7.75Z" fill="#434C6B"/>
<path d="M7.75 3C5.12665 3 3 5.12665 3 7.75V16.25C3 18.8734 5.12665 21 7.75 21H16.25C18.8734 21 21 18.8734 21 16.25V7.75C21 5.12665 18.8734 3 16.25 3H7.75ZM4.5 7.75C4.5 5.95507 5.95507 4.5 7.75 4.5H16.25C18.0449 4.5 19.5 5.95507 19.5 7.75V16.25C19.5 18.0449 18.0449 19.5 16.25 19.5H7.75C5.95507 19.5 4.5 18.0449 4.5 16.25V7.75Z" fill="#434C6B"/>
</svg>
